<?xml version="1.0" encoding="UTF-8"?>
<svg width="35px" height="34px" viewBox="0 0 35 34" version="1.1" xmlns="http://www.w3.org/2000/svg" xmlns:xlink="http://www.w3.org/1999/xlink">
    <!-- Generator: Sketch 50.2 (55047) - http://www.bohemiancoding.com/sketch -->
    <title>grapes</title>
    <desc>Created with Sketch.</desc>
    <defs></defs>
    <g id="Zilla-Slab/Lato" stroke="none" stroke-width="1" fill="none" fill-rule="evenodd">
        <g id="⟶-Questions-Copy" transform="translate(-305.000000, -294.000000)" fill-rule="nonzero">
            <g id="grapes" transform="translate(305.000000, 294.000000)">
                <circle id="Oval" fill="#9777A8" cx="3.75" cy="30" r="3.75"></circle>
                <circle id="Oval" fill="#583E68" cx="6.25" cy="16.875" r="3.75"></circle>
                <path d="M10,25 C8.38875,25 7.019375,26.0175 6.48875,27.44375 C7.114375,28.11375 7.5,29.010625 7.5,30 C7.5,30.46 7.413125,30.89875 7.26125,31.30625 C7.94625,32.03875 8.918125,32.5 10,32.5 C12.07125,32.5 13.75,30.82125 13.75,28.75 C13.75,26.67875 12.07125,25 10,25 Z" id="Shape" fill="#583E68"></path>
                <path d="M6.48875,27.44375 C6.86,26.44625 7.646875,25.6575 8.635,25.268125 C8.705,24.98125 8.75,24.68375 8.75,24.375 C8.75,22.30375 7.07125,20.625 5,20.625 C2.92875,20.625 1.25,22.30375 1.25,24.375 C1.25,25.239375 1.545,26.033125 2.03625,26.666875 C2.550625,26.401875 3.131875,26.25 3.75,26.25 C4.95625,26.25 6.026875,26.821875 6.7125,27.706875 C6.641875,27.61625 6.566875,27.528125 6.48875,27.44375 Z" id="Shape" fill="#6F58A8"></path>
                <path d="M16.25,23.125 C14.46375,23.125 12.9725,24.375 12.595,26.046875 C13.305625,26.72875 13.75,27.686875 13.75,28.75 C13.75,29.035 13.715625,29.31125 13.655,29.578125 C14.32875,30.225 15.241875,30.625 16.25,30.625 C18.32125,30.625 20,28.94625 20,26.875 C20,24.80375 18.32125,23.125 16.25,23.125 Z" id="Shape" fill="#6F58A8"></path>
                <path d="M14.606875,23.5175 C14.85125,23.02 15,22.466875 15,21.875 C15,19.80375 13.32125,18.125 11.25,18.125 C10.6675,18.125 10.118125,18.260625 9.626875,18.498125 C9.258125,19.26375 8.63875,19.883125 7.873125,20.251875 C7.675,20.664375 7.549375,21.11875 7.51375,21.59875 C8.27125,22.284375 8.75,23.2725 8.75,24.375 C8.75,24.4675 8.73875,24.556875 8.73125,24.6475 C8.906875,24.806875 9.09875,24.9475 9.301875,25.071875 C9.52875,25.02875 9.760625,25 10,25 C10.71875,25 11.3875,25.205625 11.958125,25.55625 C12.29125,25.4925 12.601875,25.373125 12.8975,25.2275 C13.263125,24.48375 13.863125,23.8825 14.606875,23.5175 Z" id="Shape" fill="#9777A8"></path>
                <path d="M17.5,16.875 C17.01625,16.875 16.55875,16.97625 16.135,17.143125 C15.87375,18.20625 15.165625,19.0925 14.21375,19.583125 C14.21375,19.5825 14.213125,19.5825 14.213125,19.5825 C14.705,20.215625 15,21.01 15,21.875 C15,22.33375 14.90875,22.76875 14.754375,23.173125 C14.815625,23.23875 14.88125,23.299375 14.946875,23.360625 C15.353125,23.21 15.79125,23.125 16.25,23.125 C17.239375,23.125 18.13625,23.510625 18.80625,24.13625 C20.2325,23.605625 21.25,22.23625 21.25,20.625 C21.25,18.55375 19.57125,16.875 17.5,16.875 Z" id="Shape" fill="#583E68"></path>
                <path d="M22.5,20.625 C22.054375,20.625 21.62875,20.70625 21.2325,20.849375 C21.141875,22.36125 20.165,23.63125 18.80625,24.136875 C18.798125,24.12875 18.78875,24.1225 18.78,24.114375 C19.5275,24.8 20,25.780625 20,26.875 C20,26.968125 19.9925,27.06 19.98625,27.151875 C20.65125,27.754375 21.53125,28.125 22.5,28.125 C24.57125,28.125 26.25,26.44625 26.25,24.375 C26.25,22.30375 24.57125,20.625 22.5,20.625 Z" id="Shape" fill="#9777A8"></path>
                <path d="M23.75,14.375 C23.51375,14.375 23.283125,14.399375 23.05875,14.44125 C22.775625,15.9575 21.5825,17.150625 20.06625,17.43375 C20.040625,17.569375 20.025,17.708125 20.01375,17.848125 C20.77125,18.534375 21.25,19.5225 21.25,20.625 C21.25,20.715625 21.235625,20.8025 21.22875,20.891875 C21.244375,20.873125 22.058125,20.625 22.5,20.625 C23.489375,20.625 24.38625,21.010625 25.05625,21.63625 C26.4825,21.105625 27.5,19.73625 27.5,18.125 C27.5,16.05375 25.82125,14.375 23.75,14.375 Z" id="Shape" fill="#583E68"></path>
                <path d="M15.625,6.25 C14.08625,6.25 12.765625,7.1775 12.1875,8.503125 C12.3875,8.961875 12.5,9.4675 12.5,10 C12.5,10.5325 12.3875,11.038125 12.1875,11.496875 C12.3525,11.875625 12.584375,12.216875 12.85875,12.518125 C13.81,12.60875 14.655,13.05625 15.265,13.723125 C15.384375,13.734375 15.5025,13.75 15.625,13.75 C15.625,11.67875 17.30375,10 19.375,10 C19.375,7.92875 17.69625,6.25 15.625,6.25 Z" id="Shape" fill="#9777A8"></path>
                <path d="M8.75,6.25 C6.67875,6.25 5,7.92875 5,10 C5,11.329375 5.69375,12.494375 6.736875,13.16 C7.29375,13.2325 7.81125,13.42625 8.26375,13.715 C8.423125,13.735625 8.585,13.75 8.75,13.75 C10.82125,13.75 12.5,12.07125 12.5,10 C12.5,7.92875 10.82125,6.25 8.75,6.25 Z" id="Shape" fill="#6F58A8"></path>
                <path d="M15.66,14.2375 C15.658125,14.235 15.656875,14.231875 15.655625,14.229375 C14.98875,13.19 13.82625,12.5 12.5,12.5 C12.10625,12.5 11.72875,12.565625 11.3725,12.678125 C10.959375,13.083125 10.453125,13.393125 9.888125,13.573125 C9.603125,13.851875 9.356875,14.17 9.17125,14.526875 C9.68875,15.17 10,15.985625 10,16.875 C10,17.466875 9.856875,18.02375 9.6125,18.521875 C9.616875,18.51375 9.6225,18.50625 9.62625,18.498125 C10.118125,18.260625 10.6675,18.125 11.25,18.125 C12.456875,18.125 13.5275,18.6975 14.21375,19.583125 C15.421875,18.960625 16.25,17.703125 16.25,16.25 C16.25,16.08375 16.235,15.921875 16.21375,15.761875 C15.925625,15.31 15.7325,14.793125 15.66,14.2375 Z" id="Shape" fill="#6F58A8"></path>
                <path d="M19.375,10 C17.30375,10 15.625,11.67875 15.625,13.75 C15.625,15.06125 16.299375,16.21375 17.319375,16.884375 C17.379375,16.88125 17.43875,16.875 17.5,16.875 C18.26,16.875 18.965625,17.1025 19.55625,17.490625 C21.5425,17.395625 23.125,15.76 23.125,13.75 C23.125,11.67875 21.44625,10 19.375,10 Z" id="Shape" fill="#6F58A8"></path>
                <path d="M35,15.625 C30.854375,15.625 27.5,12.270625 27.5,8.125 C31.645625,8.125 35,11.479375 35,15.625 Z" id="Shape" fill="#88C057"></path>
                <path d="M21.25,11.25 L21.25,10 C25.73,10 29.375,5.51375 29.375,0 L30.625,0 C30.625,6.203125 26.419375,11.25 21.25,11.25 Z" id="Shape" fill="#7A3726"></path>
            </g>
        </g>
    </g>
</svg>