<?xml version="1.0" encoding="UTF-8"?>
<svg width="24px" height="39px" viewBox="0 0 24 39" version="1.1" xmlns="http://www.w3.org/2000/svg" xmlns:xlink="http://www.w3.org/1999/xlink">
    <!-- Generator: Sketch 50.2 (55047) - http://www.bohemiancoding.com/sketch -->
    <title>ice-cream</title>
    <desc>Created with Sketch.</desc>
    <defs></defs>
    <g id="Zilla-Slab/Lato" stroke="none" stroke-width="1" fill="none" fill-rule="evenodd">
        <g id="⟶-Questions-Copy" transform="translate(-309.000000, -218.000000)" fill-rule="nonzero">
            <g id="ice-cream" transform="translate(309.000000, 218.000000)">
                <path d="M12.0230377,0 C2.32896226,0 0.45990566,8.24960377 0.45990566,11.0156604 C0.45990566,13.2511698 1.49524528,15.0628302 2.77267925,15.0628302 C4.05011321,15.0628302 5.08545283,14.3549434 5.08545283,12.119434 C5.08545283,14.3549434 6.12079245,15.0628302 7.39822642,15.0628302 C8.67566038,15.0628302 9.711,14.3549434 9.711,12.119434 C9.711,14.3549434 10.7463396,15.0628302 12.0237736,15.0628302 C13.3012075,15.0628302 14.3365472,14.3549434 14.3365472,12.119434 C14.3365472,14.3549434 15.3718868,15.0628302 16.6493208,15.0628302 C17.9267547,15.0628302 18.9620943,14.3549434 18.9620943,12.119434 C18.9620943,14.3549434 19.997434,15.0628302 21.2748679,15.0628302 C22.5523019,15.0628302 23.5876415,13.2511698 23.5876415,11.0156604 C23.5861698,7.84488679 21.7362453,0 12.0230377,0 Z" id="Shape" fill="#F2ECD3"></path>
                <path d="M19.0680566,12.5859623 L18.8546604,12.5859623 C18.5698868,13.9884906 17.6956981,14.4800377 16.6485849,14.4800377 C15.6014717,14.4800377 14.727283,13.9884906 14.4425094,12.5859623 L14.2291132,12.5859623 C13.9443396,13.9884906 13.0701509,14.4800377 12.0230377,14.4800377 C10.9759245,14.4800377 10.1017358,13.9884906 9.81696226,12.5859623 L9.60356604,12.5859623 C9.31879245,13.9884906 8.44460377,14.4800377 7.39749057,14.4800377 C6.36656604,14.4800377 5.50415094,14.0032075 5.20539623,12.650717 C5.11341509,12.6764717 5.02511321,12.7103208 4.94269811,12.753 C4.79479245,13.3453585 4.53283019,13.7589057 4.19213208,14.030434 C4.19728302,14.1790755 4.22303774,14.3306604 4.28116981,14.4807736 L7.98322642,25.5185094 L12.416717,38.7637925 L16.8502075,25.5185094 L20.5522642,14.4807736 C20.5640377,14.4491321 20.5691887,14.4182264 20.5758113,14.3865849 C19.8502642,14.196 19.2858679,13.659566 19.0680566,12.5859623 Z" id="Shape" fill="#FBD490"></path>
                <g id="Group" transform="translate(5.150943, 14.716981)" fill="#EEAF4B">
                    <rect id="Rectangle-path" transform="translate(12.211038, 2.233698) rotate(-45.000000) translate(-12.211038, -2.233698) " x="11.4751958" y="1.49785592" width="1.471684" height="1.471684"></rect>
                    <rect id="Rectangle-path" transform="translate(7.008004, 1.193874) rotate(45.000000) translate(-7.008004, -1.193874) " x="6.27216153" y="0.458031666" width="1.471684" height="1.471684"></rect>
                    <rect id="Rectangle-path" transform="translate(9.089864, 3.276665) rotate(135.000000) translate(-9.089864, -3.276665) " x="8.35402163" y="2.54082335" width="1.471684" height="1.471684"></rect>
                    <rect id="Rectangle-path" transform="translate(11.172574, 5.357013) rotate(-134.991897) translate(-11.172574, -5.357013) " x="10.4367321" y="4.62117136" width="1.47168401" height="1.47168401"></rect>
                    <rect id="Rectangle-path" transform="translate(3.886563, 2.234748) rotate(45.000000) translate(-3.886563, -2.234748) " x="3.15072103" y="1.49890576" width="1.471684" height="1.471684"></rect>
                    <rect id="Rectangle-path" transform="translate(5.968087, 4.317255) rotate(135.000000) translate(-5.968087, -4.317255) " x="5.23224522" y="3.58141348" width="1.471684" height="1.471684"></rect>
                    <rect id="Rectangle-path" transform="translate(8.049918, 6.396947) rotate(45.000000) translate(-8.049918, -6.396947) " x="7.31407618" y="5.66110519" width="1.471684" height="1.471684"></rect>
                    <rect id="Rectangle-path" transform="translate(10.131582, 8.478856) rotate(-135.000000) translate(-10.131582, -8.478856) " x="9.39574025" y="7.74301415" width="1.471684" height="1.471684"></rect>
                    <rect id="Rectangle-path" transform="translate(2.844774, 5.355757) rotate(45.000000) translate(-2.844774, -5.355757) " x="2.10893191" y="4.61991512" width="1.471684" height="1.471684"></rect>
                    <rect id="Rectangle-path" transform="translate(4.927104, 7.436583) rotate(-45.000000) translate(-4.927104, -7.436583) " x="4.19126229" y="6.70074069" width="1.471684" height="1.471684"></rect>
                    <rect id="Rectangle-path" transform="translate(7.008429, 9.518624) rotate(45.000000) translate(-7.008429, -9.518624) " x="6.27258663" y="8.78278204" width="1.471684" height="1.471684"></rect>
                    <rect id="Rectangle-path" transform="translate(9.089668, 11.600559) rotate(-135.000000) translate(-9.089668, -11.600559) " x="8.3538256" y="10.864717" width="1.471684" height="1.471684"></rect>
                    <rect id="Rectangle-path" transform="translate(3.886988, 10.559498) rotate(45.000000) translate(-3.886988, -10.559498) " x="3.15114613" y="9.82365613" width="1.471684" height="1.471684"></rect>
                    <rect id="Rectangle-path" transform="translate(5.967698, 12.642556) rotate(135.000000) translate(-5.967698, -12.642556) " x="5.23185566" y="11.9067145" width="1.471684" height="1.471684"></rect>
                    <rect id="Rectangle-path" transform="translate(8.050549, 14.722483) rotate(-135.000000) translate(-8.050549, -14.722483) " x="7.31470717" y="13.9866406" width="1.471684" height="1.471684"></rect>
                    <rect id="Rectangle-path" transform="translate(7.009959, 17.845226) rotate(-135.000000) translate(-7.009959, -17.845226) " x="6.27411705" y="17.109384" width="1.471684" height="1.471684"></rect>
                    <polygon id="Shape" points="0.602660377 4.15460377 0.76454717 4.31575472 1.80503774 3.27526415 0.76454717 2.23477358 0.161150943 2.83743396"></polygon>
                    <polygon id="Shape" points="4.92724528 14.7221321 4.34077358 15.3086038 4.79773585 16.6750755 4.92724528 16.8038491 5.96773585 15.7633585"></polygon>
                </g>
                <path d="M8.22679245,6.13109434 C8.08771698,6.13109434 7.94643396,6.09135849 7.82133962,6.0089434 C7.48284906,5.78450943 7.38939623,5.32828302 7.61383019,4.9890566 L8.95381132,2.96326415 C9.17824528,2.62403774 9.63373585,2.53058491 9.97369811,2.75575472 C10.3121887,2.98018868 10.4056415,3.43641509 10.1812075,3.77564151 L8.84122642,5.80143396 C8.69920755,6.01556604 8.46520755,6.13109434 8.22679245,6.13109434 Z" id="Shape" fill="#9777A8"></path>
                <path d="M18.4573019,10.3018868 C18.2689245,10.3018868 18.0805472,10.2297736 17.9370566,10.086283 L15.8803585,8.02884906 C15.5926415,7.74113208 15.5926415,7.27607547 15.8803585,6.98835849 C16.1680755,6.70064151 16.6331321,6.70064151 16.9208491,6.98835849 L18.9775472,9.04579245 C19.2652642,9.33350943 19.2652642,9.79856604 18.9775472,10.086283 C18.8333208,10.2305094 18.6456792,10.3018868 18.4573019,10.3018868 Z" id="Shape" fill="#00D7EC"></path>
                <path d="M10.9825472,10.2334528 C10.6720189,10.2334528 10.3843019,10.0355094 10.2827547,9.72498113 C10.1576604,9.33939623 10.3688491,8.92364151 10.7551698,8.79781132 L12.7875849,8.13775472 C13.1753774,8.01266038 13.5896604,8.22458491 13.7147547,8.61090566 C13.8398491,8.99722642 13.6286604,9.41224528 13.2423396,9.53807547 L11.2099245,10.1981321 C11.1348679,10.2216792 11.0576038,10.2334528 10.9825472,10.2334528 Z" id="Shape" fill="#E22F37"></path>
                <path d="M8.25181132,8.8500566 C8.13996226,8.8500566 8.02664151,8.82503774 7.9199434,8.77058491 L6.5549434,8.07888679 C6.19216981,7.89566038 6.0479434,7.45267925 6.23116981,7.08990566 C6.41513208,6.72786792 6.85664151,6.58069811 7.22015094,6.76686792 L8.58515094,7.45856604 C8.94792453,7.64179245 9.09215094,8.08477358 8.90892453,8.44754717 C8.77867925,8.70288679 8.52039623,8.8500566 8.25181132,8.8500566 Z" id="Shape" fill="#F1B501"></path>
                <path d="M13.6639811,6.18186792 C13.3953962,6.18186792 13.1363774,6.03469811 13.0068679,5.77862264 L12.3151698,4.41362264 C12.1312075,4.05084906 12.2761698,3.60786792 12.6389434,3.42464151 C13.001717,3.2384717 13.4446981,3.38564151 13.6279245,3.74767925 L14.3196226,5.11267925 C14.5035849,5.47545283 14.3586226,5.91843396 13.9958491,6.10166038 C13.8891509,6.15684906 13.7758302,6.18186792 13.6639811,6.18186792 Z" id="Shape" fill="#79E09B"></path>
            </g>
        </g>
    </g>
</svg>